<svg id="Layer_1" data-name="Layer 1" xmlns="http://www.w3.org/2000/svg" viewBox="0 0 489.49 402.81"><defs><style>.cls-1{fill:none;stroke:#fff;stroke-linecap:round;stroke-linejoin:round;stroke-width:18px;}</style></defs><title>main--logo</title><path class="cls-1" d="M167.92,272.89a97.38,97.38,0,1,1-13.3-168,97.27,97.27,0,0,1,193.4,0A97.26,97.26,0,1,1,389.77,290c-102.92,0-138.45-45.44-138.45-45.44" transform="translate(-6.57 -9.14)"/><path class="cls-1" d="M115.69,290,134.4,403s40.95-28.11,116.92-28.11S368.23,403,368.23,403l18.71-113" transform="translate(-6.57 -9.14)"/><path class="cls-1" d="M180.94,337.08a269.67,269.67,0,0,1,70.38-8.9c76,0,116.91,28.11,116.91,28.11" transform="translate(-6.57 -9.14)"/></svg>